<?xml version="1.0" encoding="utf-8" standalone="no"?>
<!DOCTYPE svg PUBLIC "-//W3C//DTD SVG 1.1//EN"
  "http://www.w3.org/Graphics/SVG/1.1/DTD/svg11.dtd">
<svg xmlns:xlink="http://www.w3.org/1999/xlink" width="280.705pt" height="280.53375pt" viewBox="0 0 280.705 280.53375" xmlns="http://www.w3.org/2000/svg" version="1.1">
 <metadata>
  <rdf:RDF xmlns:dc="http://purl.org/dc/elements/1.1/" xmlns:cc="http://creativecommons.org/ns#" xmlns:rdf="http://www.w3.org/1999/02/22-rdf-syntax-ns#">
   <cc:Work>
    <dc:type rdf:resource="http://purl.org/dc/dcmitype/StillImage"/>
    <dc:date>2026-05-02T15:54:47.905300</dc:date>
    <dc:format>image/svg+xml</dc:format>
    <dc:creator>
     <cc:Agent>
      <dc:title>Matplotlib v3.10.6, https://matplotlib.org/</dc:title>
     </cc:Agent>
    </dc:creator>
   </cc:Work>
  </rdf:RDF>
 </metadata>
 <defs>
  <style type="text/css">*{stroke-linejoin: round; stroke-linecap: butt}</style>
 </defs>
 <g id="figure_1">
  <g id="patch_1">
   <path d="M 0 280.53375 
L 280.705 280.53375 
L 280.705 0 
L 0 0 
z
" style="fill: #ffffff"/>
  </g>
  <g id="axes_1">
   <g id="patch_2">
    <path d="M 48.15 245.055625 
L 273.505 245.055625 
L 273.505 22.295625 
L 48.15 22.295625 
z
" style="fill: #ffffff"/>
   </g>
   <g id="matplotlib.axis_1">
    <g id="xtick_1">
     <g id="line2d_1">
      <path d="M 160.8275 245.055625 
L 160.8275 22.295625 
" clip-path="url(#p6d3cba4a1d)" style="fill: none; stroke-dasharray: 0.8,1.32; stroke-dashoffset: 0; stroke: #b0b0b0; stroke-opacity: 0.4; stroke-width: 0.8"/>
     </g>
     <g id="line2d_2">
      <defs>
       <path id="m1a02b5dcfa" d="M 0 0 
L 0 3.5 
" style="stroke: #000000; stroke-width: 0.8"/>
      </defs>
      <g>
       <use xlink:href="#m1a02b5dcfa" x="160.8275" y="245.055625" style="stroke: #000000; stroke-width: 0.8"/>
      </g>
     </g>
     <g id="text_1">
      <!-- rule -->
      <g transform="translate(152.812656 259.635312) scale(0.1 -0.1)">
       <defs>
        <path id="AppleSDGothicNeo-Regular-72" d="M 467 269 
L 960 269 
L 960 2765 
C 1184 2925 1491 3040 1811 3040 
C 1862 3040 1958 3034 2042 3021 
L 2042 3462 
C 2010 3469 1920 3475 1850 3475 
C 1491 3475 1146 3290 966 3085 
L 934 3085 
L 934 3443 
L 467 3443 
L 467 269 
z
" transform="scale(0.015625)"/>
        <path id="AppleSDGothicNeo-Regular-75" d="M 1421 211 
C 1805 211 2144 358 2432 557 
L 2458 557 
L 2502 269 
L 2925 269 
L 2925 3443 
L 2438 3443 
L 2438 883 
C 2176 755 1894 634 1555 634 
C 1088 634 941 800 941 1210 
L 941 3443 
L 448 3443 
L 448 1139 
C 448 525 800 211 1421 211 
z
" transform="scale(0.015625)"/>
        <path id="AppleSDGothicNeo-Regular-6c" d="M 480 269 
L 973 269 
L 973 4851 
L 480 4851 
L 480 269 
z
" transform="scale(0.015625)"/>
        <path id="AppleSDGothicNeo-Regular-65" d="M 1773 211 
C 2285 211 2650 371 2842 506 
L 2842 870 
C 2554 736 2272 634 1850 634 
C 1171 634 794 941 768 1734 
L 2931 1734 
L 2931 2010 
C 2931 2995 2522 3501 1651 3501 
C 922 3501 269 3008 269 1901 
L 269 1811 
C 269 819 774 211 1773 211 
z
M 1638 3104 
C 2157 3104 2419 2816 2419 2125 
L 768 2125 
C 819 2874 1242 3104 1638 3104 
z
" transform="scale(0.015625)"/>
       </defs>
       <use xlink:href="#AppleSDGothicNeo-Regular-72"/>
       <use xlink:href="#AppleSDGothicNeo-Regular-75" transform="translate(34.599991 0)"/>
       <use xlink:href="#AppleSDGothicNeo-Regular-6c" transform="translate(87.599976 0)"/>
       <use xlink:href="#AppleSDGothicNeo-Regular-65" transform="translate(110.299973 0)"/>
      </g>
     </g>
    </g>
    <g id="text_2">
     <!-- Agent -->
     <g transform="translate(148.343125 272.274375) scale(0.1 -0.1)">
      <defs>
       <path id="AppleSDGothicNeo-Regular-41" d="M 122 269 
L 608 269 
L 1050 1523 
L 2771 1523 
L 3226 269 
L 3757 269 
L 2189 4563 
L 1696 4563 
L 122 269 
z
M 1901 3885 
L 1914 3885 
L 2611 1952 
L 1197 1952 
L 1901 3885 
z
" transform="scale(0.015625)"/>
       <path id="AppleSDGothicNeo-Regular-67" d="M 1574 -672 
C 2656 -672 3091 -243 3091 301 
C 3091 890 2662 1062 2086 1062 
L 1210 1062 
C 998 1062 896 1126 896 1299 
C 896 1402 960 1478 1043 1555 
C 1210 1498 1389 1466 1587 1466 
C 2253 1466 2778 1805 2778 2483 
L 2778 2490 
C 2778 2739 2694 2931 2547 3072 
L 3117 3072 
L 3117 3450 
L 2042 3450 
C 1901 3482 1754 3501 1594 3501 
C 896 3501 397 3136 397 2477 
L 397 2464 
C 397 2086 550 1830 794 1670 
C 550 1491 435 1344 435 1146 
C 435 934 576 800 755 749 
L 755 717 
C 429 608 154 410 154 70 
C 154 -390 608 -672 1574 -672 
z
M 1562 -288 
C 934 -288 666 -147 666 134 
C 666 403 851 544 1094 627 
L 2010 627 
C 2426 627 2579 531 2579 237 
C 2579 -96 2310 -288 1562 -288 
z
M 1587 1850 
C 1165 1850 883 2054 883 2470 
L 883 2502 
C 883 2899 1152 3130 1587 3130 
C 2016 3130 2285 2931 2285 2496 
L 2285 2464 
C 2285 2054 2029 1850 1587 1850 
z
" transform="scale(0.015625)"/>
       <path id="AppleSDGothicNeo-Regular-6e" d="M 467 269 
L 954 269 
L 954 2848 
C 1216 2970 1549 3078 1850 3078 
C 2355 3078 2490 2918 2490 2534 
L 2490 269 
L 2976 269 
L 2976 2637 
C 2976 3251 2675 3501 2054 3501 
C 1664 3501 1254 3360 960 3168 
L 934 3168 
L 934 3443 
L 467 3443 
L 467 269 
z
" transform="scale(0.015625)"/>
       <path id="AppleSDGothicNeo-Regular-74" d="M 1472 230 
C 1747 230 1882 301 2010 358 
L 2010 691 
C 1882 653 1734 634 1600 634 
C 1235 634 1133 755 1133 1062 
L 1133 3034 
L 1946 3034 
L 1946 3437 
L 1133 3437 
L 1133 4192 
L 646 4192 
L 646 3437 
L 192 3437 
L 192 3034 
L 646 3034 
L 646 986 
C 646 448 973 230 1472 230 
z
" transform="scale(0.015625)"/>
      </defs>
      <use xlink:href="#AppleSDGothicNeo-Regular-41"/>
      <use xlink:href="#AppleSDGothicNeo-Regular-67" transform="translate(60.499985 0)"/>
      <use xlink:href="#AppleSDGothicNeo-Regular-65" transform="translate(111.099976 0)"/>
      <use xlink:href="#AppleSDGothicNeo-Regular-6e" transform="translate(161.09996 0)"/>
      <use xlink:href="#AppleSDGothicNeo-Regular-74" transform="translate(214.699951 0)"/>
     </g>
    </g>
   </g>
   <g id="matplotlib.axis_2">
    <g id="ytick_1">
     <g id="line2d_3">
      <path d="M 48.15 234.93017 
L 273.505 234.93017 
" clip-path="url(#p6d3cba4a1d)" style="fill: none; stroke-dasharray: 0.8,1.32; stroke-dashoffset: 0; stroke: #b0b0b0; stroke-opacity: 0.4; stroke-width: 0.8"/>
     </g>
     <g id="line2d_4">
      <defs>
       <path id="me49e1c2bd2" d="M 0 0 
L -3.5 0 
" style="stroke: #000000; stroke-width: 0.8"/>
      </defs>
      <g>
       <use xlink:href="#me49e1c2bd2" x="48.15" y="234.93017" style="stroke: #000000; stroke-width: 0.8"/>
      </g>
     </g>
     <g id="text_3">
      <!-- 0.00 -->
      <g transform="translate(19.990625 238.720014) scale(0.1 -0.1)">
       <defs>
        <path id="AppleSDGothicNeo-Regular-30" d="M 2022 192 
C 2893 192 3558 787 3558 2240 
L 3558 2630 
C 3558 4122 2867 4634 2029 4634 
C 1184 4634 448 4122 448 2605 
L 448 2246 
C 448 794 1139 192 2022 192 
z
M 2022 614 
C 1350 614 992 1126 992 2195 
L 992 2669 
C 992 3744 1357 4211 2029 4211 
C 2688 4211 3040 3718 3040 2637 
L 3040 2163 
C 3040 1062 2682 614 2022 614 
z
" transform="scale(0.015625)"/>
        <path id="AppleSDGothicNeo-Regular-2e" d="M 269 109 
L 826 109 
L 826 678 
L 269 678 
L 269 109 
z
" transform="scale(0.015625)"/>
       </defs>
       <use xlink:href="#AppleSDGothicNeo-Regular-30"/>
       <use xlink:href="#AppleSDGothicNeo-Regular-2e" transform="translate(62.999985 0)"/>
       <use xlink:href="#AppleSDGothicNeo-Regular-30" transform="translate(85.599976 0)"/>
       <use xlink:href="#AppleSDGothicNeo-Regular-30" transform="translate(148.59996 0)"/>
      </g>
     </g>
    </g>
    <g id="ytick_2">
     <g id="line2d_5">
      <path d="M 48.15 208.883048 
L 273.505 208.883048 
" clip-path="url(#p6d3cba4a1d)" style="fill: none; stroke-dasharray: 0.8,1.32; stroke-dashoffset: 0; stroke: #b0b0b0; stroke-opacity: 0.4; stroke-width: 0.8"/>
     </g>
     <g id="line2d_6">
      <g>
       <use xlink:href="#me49e1c2bd2" x="48.15" y="208.883048" style="stroke: #000000; stroke-width: 0.8"/>
      </g>
     </g>
     <g id="text_4">
      <!-- 0.25 -->
      <g transform="translate(22.270313 212.672892) scale(0.1 -0.1)">
       <defs>
        <path id="AppleSDGothicNeo-Regular-32" d="M 397 269 
L 3066 269 
L 3066 704 
L 1107 704 
L 1779 1382 
C 2522 2138 2970 2650 2970 3392 
C 2970 4160 2502 4640 1638 4640 
C 1152 4640 717 4422 448 4250 
L 595 3846 
C 845 4019 1190 4198 1555 4198 
C 2163 4198 2438 3917 2438 3347 
C 2438 2733 2029 2266 1421 1632 
L 397 570 
L 397 269 
z
" transform="scale(0.015625)"/>
        <path id="AppleSDGothicNeo-Regular-35" d="M 1395 192 
C 2342 192 2906 838 2906 1606 
C 2906 2509 2374 2918 1510 2918 
C 1331 2918 1069 2874 896 2829 
L 986 4134 
L 2752 4134 
L 2752 4570 
L 576 4570 
L 422 2317 
C 621 2406 1024 2528 1318 2528 
C 1990 2528 2374 2266 2374 1613 
C 2374 1005 1978 621 1299 621 
C 947 621 525 768 288 928 
L 192 518 
C 448 333 896 192 1395 192 
z
" transform="scale(0.015625)"/>
       </defs>
       <use xlink:href="#AppleSDGothicNeo-Regular-30"/>
       <use xlink:href="#AppleSDGothicNeo-Regular-2e" transform="translate(62.999985 0)"/>
       <use xlink:href="#AppleSDGothicNeo-Regular-32" transform="translate(85.599976 0)"/>
       <use xlink:href="#AppleSDGothicNeo-Regular-35" transform="translate(138.899963 0)"/>
      </g>
     </g>
    </g>
    <g id="ytick_3">
     <g id="line2d_7">
      <path d="M 48.15 182.835926 
L 273.505 182.835926 
" clip-path="url(#p6d3cba4a1d)" style="fill: none; stroke-dasharray: 0.8,1.32; stroke-dashoffset: 0; stroke: #b0b0b0; stroke-opacity: 0.4; stroke-width: 0.8"/>
     </g>
     <g id="line2d_8">
      <g>
       <use xlink:href="#me49e1c2bd2" x="48.15" y="182.835926" style="stroke: #000000; stroke-width: 0.8"/>
      </g>
     </g>
     <g id="text_5">
      <!-- 0.50 -->
      <g transform="translate(21.3 186.62577) scale(0.1 -0.1)">
       <use xlink:href="#AppleSDGothicNeo-Regular-30"/>
       <use xlink:href="#AppleSDGothicNeo-Regular-2e" transform="translate(62.999985 0)"/>
       <use xlink:href="#AppleSDGothicNeo-Regular-35" transform="translate(85.599976 0)"/>
       <use xlink:href="#AppleSDGothicNeo-Regular-30" transform="translate(135.499969 0)"/>
      </g>
     </g>
    </g>
    <g id="ytick_4">
     <g id="line2d_9">
      <path d="M 48.15 156.788805 
L 273.505 156.788805 
" clip-path="url(#p6d3cba4a1d)" style="fill: none; stroke-dasharray: 0.8,1.32; stroke-dashoffset: 0; stroke: #b0b0b0; stroke-opacity: 0.4; stroke-width: 0.8"/>
     </g>
     <g id="line2d_10">
      <g>
       <use xlink:href="#me49e1c2bd2" x="48.15" y="156.788805" style="stroke: #000000; stroke-width: 0.8"/>
      </g>
     </g>
     <g id="text_6">
      <!-- 0.75 -->
      <g transform="translate(22.7 160.578648) scale(0.1 -0.1)">
       <defs>
        <path id="AppleSDGothicNeo-Regular-37" d="M 710 243 
L 1274 243 
L 2957 4218 
L 2957 4544 
L 218 4544 
L 218 4115 
L 2400 4115 
L 710 243 
z
" transform="scale(0.015625)"/>
       </defs>
       <use xlink:href="#AppleSDGothicNeo-Regular-30"/>
       <use xlink:href="#AppleSDGothicNeo-Regular-2e" transform="translate(62.999985 0)"/>
       <use xlink:href="#AppleSDGothicNeo-Regular-37" transform="translate(85.599976 0)"/>
       <use xlink:href="#AppleSDGothicNeo-Regular-35" transform="translate(134.59996 0)"/>
      </g>
     </g>
    </g>
    <g id="ytick_5">
     <g id="line2d_11">
      <path d="M 48.15 130.741683 
L 273.505 130.741683 
" clip-path="url(#p6d3cba4a1d)" style="fill: none; stroke-dasharray: 0.8,1.32; stroke-dashoffset: 0; stroke: #b0b0b0; stroke-opacity: 0.4; stroke-width: 0.8"/>
     </g>
     <g id="line2d_12">
      <g>
       <use xlink:href="#me49e1c2bd2" x="48.15" y="130.741683" style="stroke: #000000; stroke-width: 0.8"/>
      </g>
     </g>
     <g id="text_7">
      <!-- 1.00 -->
      <g transform="translate(22.720313 134.531526) scale(0.1 -0.1)">
       <defs>
        <path id="AppleSDGothicNeo-Regular-31" d="M 1146 243 
L 1632 243 
L 1632 4634 
L 1363 4634 
L 352 4160 
L 352 3866 
L 1146 4051 
L 1146 243 
z
" transform="scale(0.015625)"/>
       </defs>
       <use xlink:href="#AppleSDGothicNeo-Regular-31"/>
       <use xlink:href="#AppleSDGothicNeo-Regular-2e" transform="translate(35.699997 0)"/>
       <use xlink:href="#AppleSDGothicNeo-Regular-30" transform="translate(58.299988 0)"/>
       <use xlink:href="#AppleSDGothicNeo-Regular-30" transform="translate(121.299973 0)"/>
      </g>
     </g>
    </g>
    <g id="ytick_6">
     <g id="line2d_13">
      <path d="M 48.15 104.694561 
L 273.505 104.694561 
" clip-path="url(#p6d3cba4a1d)" style="fill: none; stroke-dasharray: 0.8,1.32; stroke-dashoffset: 0; stroke: #b0b0b0; stroke-opacity: 0.4; stroke-width: 0.8"/>
     </g>
     <g id="line2d_14">
      <g>
       <use xlink:href="#me49e1c2bd2" x="48.15" y="104.694561" style="stroke: #000000; stroke-width: 0.8"/>
      </g>
     </g>
     <g id="text_8">
      <!-- 1.25 -->
      <g transform="translate(25 108.484404) scale(0.1 -0.1)">
       <use xlink:href="#AppleSDGothicNeo-Regular-31"/>
       <use xlink:href="#AppleSDGothicNeo-Regular-2e" transform="translate(35.699997 0)"/>
       <use xlink:href="#AppleSDGothicNeo-Regular-32" transform="translate(58.299988 0)"/>
       <use xlink:href="#AppleSDGothicNeo-Regular-35" transform="translate(111.599976 0)"/>
      </g>
     </g>
    </g>
    <g id="ytick_7">
     <g id="line2d_15">
      <path d="M 48.15 78.647439 
L 273.505 78.647439 
" clip-path="url(#p6d3cba4a1d)" style="fill: none; stroke-dasharray: 0.8,1.32; stroke-dashoffset: 0; stroke: #b0b0b0; stroke-opacity: 0.4; stroke-width: 0.8"/>
     </g>
     <g id="line2d_16">
      <g>
       <use xlink:href="#me49e1c2bd2" x="48.15" y="78.647439" style="stroke: #000000; stroke-width: 0.8"/>
      </g>
     </g>
     <g id="text_9">
      <!-- 1.50 -->
      <g transform="translate(24.029688 82.437282) scale(0.1 -0.1)">
       <use xlink:href="#AppleSDGothicNeo-Regular-31"/>
       <use xlink:href="#AppleSDGothicNeo-Regular-2e" transform="translate(35.699997 0)"/>
       <use xlink:href="#AppleSDGothicNeo-Regular-35" transform="translate(58.299988 0)"/>
       <use xlink:href="#AppleSDGothicNeo-Regular-30" transform="translate(108.199982 0)"/>
      </g>
     </g>
    </g>
    <g id="ytick_8">
     <g id="line2d_17">
      <path d="M 48.15 52.600317 
L 273.505 52.600317 
" clip-path="url(#p6d3cba4a1d)" style="fill: none; stroke-dasharray: 0.8,1.32; stroke-dashoffset: 0; stroke: #b0b0b0; stroke-opacity: 0.4; stroke-width: 0.8"/>
     </g>
     <g id="line2d_18">
      <g>
       <use xlink:href="#me49e1c2bd2" x="48.15" y="52.600317" style="stroke: #000000; stroke-width: 0.8"/>
      </g>
     </g>
     <g id="text_10">
      <!-- 1.75 -->
      <g transform="translate(25.429688 56.39016) scale(0.1 -0.1)">
       <use xlink:href="#AppleSDGothicNeo-Regular-31"/>
       <use xlink:href="#AppleSDGothicNeo-Regular-2e" transform="translate(35.699997 0)"/>
       <use xlink:href="#AppleSDGothicNeo-Regular-37" transform="translate(58.299988 0)"/>
       <use xlink:href="#AppleSDGothicNeo-Regular-35" transform="translate(107.299973 0)"/>
      </g>
     </g>
    </g>
    <g id="ytick_9">
     <g id="line2d_19">
      <path d="M 48.15 26.553195 
L 273.505 26.553195 
" clip-path="url(#p6d3cba4a1d)" style="fill: none; stroke-dasharray: 0.8,1.32; stroke-dashoffset: 0; stroke: #b0b0b0; stroke-opacity: 0.4; stroke-width: 0.8"/>
     </g>
     <g id="line2d_20">
      <g>
       <use xlink:href="#me49e1c2bd2" x="48.15" y="26.553195" style="stroke: #000000; stroke-width: 0.8"/>
      </g>
     </g>
     <g id="text_11">
      <!-- 2.00 -->
      <g transform="translate(20.960938 30.343038) scale(0.1 -0.1)">
       <use xlink:href="#AppleSDGothicNeo-Regular-32"/>
       <use xlink:href="#AppleSDGothicNeo-Regular-2e" transform="translate(53.299988 0)"/>
       <use xlink:href="#AppleSDGothicNeo-Regular-30" transform="translate(75.899979 0)"/>
       <use xlink:href="#AppleSDGothicNeo-Regular-30" transform="translate(138.899963 0)"/>
      </g>
     </g>
    </g>
    <g id="text_12">
     <!-- Action Entropy (bits) -->
     <g transform="translate(14.920313 177.385781) rotate(-90) scale(0.1 -0.1)">
      <defs>
       <path id="AppleSDGothicNeo-Regular-63" d="M 1734 211 
C 2176 211 2458 339 2662 461 
L 2662 858 
C 2502 768 2221 634 1792 634 
C 1114 634 774 998 774 1811 
L 774 1965 
C 774 2694 1152 3085 1728 3085 
C 2144 3085 2349 3008 2630 2880 
L 2630 3290 
C 2419 3424 2170 3501 1754 3501 
C 934 3501 269 3014 269 1888 
L 269 1792 
C 269 749 826 211 1734 211 
z
" transform="scale(0.015625)"/>
       <path id="AppleSDGothicNeo-Regular-69" d="M 486 269 
L 973 269 
L 973 3437 
L 486 3437 
L 486 269 
z
M 480 4077 
L 979 4077 
L 979 4589 
L 480 4589 
L 480 4077 
z
" transform="scale(0.015625)"/>
       <path id="AppleSDGothicNeo-Regular-6f" d="M 1702 211 
C 2560 211 3149 813 3149 1824 
L 3149 1914 
C 3149 2918 2605 3501 1709 3501 
C 851 3501 269 2899 269 1894 
L 269 1798 
C 269 787 806 211 1702 211 
z
M 1715 614 
C 1184 614 768 902 768 1786 
L 768 1946 
C 768 2688 1126 3098 1702 3098 
C 2221 3098 2650 2810 2650 1926 
L 2650 1766 
C 2650 1018 2291 614 1715 614 
z
" transform="scale(0.015625)"/>
       <path id="AppleSDGothicNeo-Regular-20" transform="scale(0.015625)"/>
       <path id="AppleSDGothicNeo-Regular-45" d="M 557 269 
L 3123 269 
L 3123 698 
L 1062 698 
L 1062 2266 
L 2637 2266 
L 2637 2694 
L 1062 2694 
L 1062 4134 
L 3104 4134 
L 3104 4563 
L 557 4563 
L 557 269 
z
" transform="scale(0.015625)"/>
       <path id="AppleSDGothicNeo-Regular-70" d="M 467 -678 
L 960 -678 
L 960 422 
C 1139 320 1408 211 1773 211 
C 2650 211 3206 698 3206 1856 
L 3206 1939 
C 3206 3117 2605 3501 1907 3501 
C 1498 3501 1165 3360 966 3181 
L 941 3181 
L 941 3437 
L 467 3437 
L 467 -678 
z
M 1728 614 
C 1395 614 1107 717 960 838 
L 960 2854 
C 1107 2957 1408 3085 1779 3085 
C 2362 3085 2694 2810 2694 1914 
L 2694 1786 
C 2694 934 2330 614 1728 614 
z
" transform="scale(0.015625)"/>
       <path id="AppleSDGothicNeo-Regular-79" d="M 710 -685 
C 1235 -685 1498 -493 1709 70 
L 2957 3443 
L 2464 3443 
L 1606 1030 
L 1594 1030 
L 659 3443 
L 134 3443 
L 1350 384 
L 1254 122 
C 1120 -224 928 -275 621 -275 
C 506 -275 390 -243 314 -230 
L 314 -595 
C 403 -640 563 -685 710 -685 
z
" transform="scale(0.015625)"/>
       <path id="AppleSDGothicNeo-Regular-28" d="M 1472 -384 
L 1914 -384 
C 1344 256 883 1235 883 2221 
L 883 2374 
C 883 3392 1344 4307 1914 4941 
L 1472 4941 
C 883 4339 365 3469 365 2330 
L 365 2227 
C 365 1094 883 218 1472 -384 
z
" transform="scale(0.015625)"/>
       <path id="AppleSDGothicNeo-Regular-62" d="M 1626 198 
C 2650 198 3206 800 3206 1862 
L 3206 1946 
C 3206 3136 2579 3501 1971 3501 
C 1536 3501 1235 3379 992 3232 
L 960 3232 
L 960 4851 
L 467 4851 
L 467 371 
C 749 262 1254 198 1626 198 
z
M 1651 608 
C 1331 608 1107 659 960 723 
L 960 2880 
C 1126 2957 1421 3085 1747 3085 
C 2387 3085 2694 2797 2694 1914 
L 2694 1786 
C 2694 877 2221 608 1651 608 
z
" transform="scale(0.015625)"/>
       <path id="AppleSDGothicNeo-Regular-73" d="M 1274 218 
C 1971 218 2394 550 2394 1152 
C 2394 1702 2144 1907 1536 2067 
L 1216 2157 
C 877 2253 742 2368 742 2643 
C 742 2938 954 3085 1382 3085 
C 1734 3085 2054 3002 2221 2918 
L 2221 3315 
C 2054 3405 1779 3501 1357 3501 
C 627 3501 275 3136 275 2598 
C 275 2061 589 1850 1050 1722 
L 1363 1638 
C 1766 1523 1914 1395 1914 1101 
C 1914 813 1709 634 1203 634 
C 755 634 525 730 250 832 
L 250 442 
C 512 294 858 218 1274 218 
z
" transform="scale(0.015625)"/>
       <path id="AppleSDGothicNeo-Regular-29" d="M 115 -384 
L 550 -384 
C 1146 218 1651 1088 1651 2227 
L 1651 2330 
C 1651 3462 1146 4339 550 4941 
L 115 4941 
C 678 4301 1146 3322 1146 2336 
L 1146 2176 
C 1146 1165 678 250 115 -384 
z
" transform="scale(0.015625)"/>
      </defs>
      <use xlink:href="#AppleSDGothicNeo-Regular-41"/>
      <use xlink:href="#AppleSDGothicNeo-Regular-63" transform="translate(60.499985 0)"/>
      <use xlink:href="#AppleSDGothicNeo-Regular-74" transform="translate(105.499969 0)"/>
      <use xlink:href="#AppleSDGothicNeo-Regular-69" transform="translate(140.499954 0)"/>
      <use xlink:href="#AppleSDGothicNeo-Regular-6f" transform="translate(163.199951 0)"/>
      <use xlink:href="#AppleSDGothicNeo-Regular-6e" transform="translate(216.599945 0)"/>
      <use xlink:href="#AppleSDGothicNeo-Regular-20" transform="translate(270.199936 0)"/>
      <use xlink:href="#AppleSDGothicNeo-Regular-45" transform="translate(296.499924 0)"/>
      <use xlink:href="#AppleSDGothicNeo-Regular-6e" transform="translate(351.499908 0)"/>
      <use xlink:href="#AppleSDGothicNeo-Regular-74" transform="translate(405.099899 0)"/>
      <use xlink:href="#AppleSDGothicNeo-Regular-72" transform="translate(440.099884 0)"/>
      <use xlink:href="#AppleSDGothicNeo-Regular-6f" transform="translate(474.699875 0)"/>
      <use xlink:href="#AppleSDGothicNeo-Regular-70" transform="translate(528.099869 0)"/>
      <use xlink:href="#AppleSDGothicNeo-Regular-79" transform="translate(582.599854 0)"/>
      <use xlink:href="#AppleSDGothicNeo-Regular-20" transform="translate(630.79985 0)"/>
      <use xlink:href="#AppleSDGothicNeo-Regular-28" transform="translate(657.099838 0)"/>
      <use xlink:href="#AppleSDGothicNeo-Regular-62" transform="translate(688.799835 0)"/>
      <use xlink:href="#AppleSDGothicNeo-Regular-69" transform="translate(743.29982 0)"/>
      <use xlink:href="#AppleSDGothicNeo-Regular-74" transform="translate(765.999817 0)"/>
      <use xlink:href="#AppleSDGothicNeo-Regular-73" transform="translate(800.999802 0)"/>
      <use xlink:href="#AppleSDGothicNeo-Regular-29" transform="translate(842.499786 0)"/>
     </g>
    </g>
   </g>
   <g id="patch_3">
    <path d="M 143.925875 127.0992 
L 177.729125 127.0992 
L 177.729125 71.424404 
L 143.925875 71.424404 
L 143.925875 127.0992 
z
" clip-path="url(#p6d3cba4a1d)" style="fill: #ffffff; stroke: #000000; stroke-linejoin: miter"/>
   </g>
   <g id="line2d_21">
    <path d="M 160.8275 127.0992 
L 160.8275 194.167095 
" clip-path="url(#p6d3cba4a1d)" style="fill: none; stroke: #000000; stroke-linecap: square"/>
   </g>
   <g id="line2d_22">
    <path d="M 160.8275 71.424404 
L 160.8275 32.42108 
" clip-path="url(#p6d3cba4a1d)" style="fill: none; stroke: #000000; stroke-linecap: square"/>
   </g>
   <g id="line2d_23">
    <path d="M 152.376688 194.167095 
L 169.278313 194.167095 
" clip-path="url(#p6d3cba4a1d)" style="fill: none; stroke: #000000; stroke-linecap: square"/>
   </g>
   <g id="line2d_24">
    <path d="M 152.376688 32.42108 
L 169.278313 32.42108 
" clip-path="url(#p6d3cba4a1d)" style="fill: none; stroke: #000000; stroke-linecap: square"/>
   </g>
   <g id="line2d_25">
    <defs>
     <path id="mb43181b61b" d="M 0 3 
C 0.795609 3 1.55874 2.683901 2.12132 2.12132 
C 2.683901 1.55874 3 0.795609 3 0 
C 3 -0.795609 2.683901 -1.55874 2.12132 -2.12132 
C 1.55874 -2.683901 0.795609 -3 0 -3 
C -0.795609 -3 -1.55874 -2.683901 -2.12132 -2.12132 
C -2.683901 -1.55874 -3 -0.795609 -3 0 
C -3 0.795609 -2.683901 1.55874 -2.12132 2.12132 
C -1.55874 2.683901 -0.795609 3 0 3 
z
" style="stroke: #000000"/>
    </defs>
    <g clip-path="url(#p6d3cba4a1d)">
     <use xlink:href="#mb43181b61b" x="160.8275" y="217.005901" style="fill-opacity: 0; stroke: #000000"/>
     <use xlink:href="#mb43181b61b" x="160.8275" y="217.005901" style="fill-opacity: 0; stroke: #000000"/>
     <use xlink:href="#mb43181b61b" x="160.8275" y="234.93017" style="fill-opacity: 0; stroke: #000000"/>
    </g>
   </g>
   <g id="line2d_26">
    <path d="M 143.925875 100.693566 
L 177.729125 100.693566 
" clip-path="url(#p6d3cba4a1d)" style="fill: none; stroke: #000000; stroke-width: 1.5"/>
   </g>
   <g id="patch_4">
    <path d="M 48.15 245.055625 
L 48.15 22.295625 
" style="fill: none; stroke: #000000; stroke-width: 0.8; stroke-linejoin: miter; stroke-linecap: square"/>
   </g>
   <g id="patch_5">
    <path d="M 48.15 245.055625 
L 273.505 245.055625 
" style="fill: none; stroke: #000000; stroke-width: 0.8; stroke-linejoin: miter; stroke-linecap: square"/>
   </g>
   <g id="text_13">
    <!-- Action Entropy by Agent -->
    <g transform="translate(98.680625 16.295625) scale(0.12 -0.12)">
     <use xlink:href="#AppleSDGothicNeo-Regular-41"/>
     <use xlink:href="#AppleSDGothicNeo-Regular-63" transform="translate(60.499985 0)"/>
     <use xlink:href="#AppleSDGothicNeo-Regular-74" transform="translate(105.499969 0)"/>
     <use xlink:href="#AppleSDGothicNeo-Regular-69" transform="translate(140.499954 0)"/>
     <use xlink:href="#AppleSDGothicNeo-Regular-6f" transform="translate(163.199951 0)"/>
     <use xlink:href="#AppleSDGothicNeo-Regular-6e" transform="translate(216.599945 0)"/>
     <use xlink:href="#AppleSDGothicNeo-Regular-20" transform="translate(270.199936 0)"/>
     <use xlink:href="#AppleSDGothicNeo-Regular-45" transform="translate(296.499924 0)"/>
     <use xlink:href="#AppleSDGothicNeo-Regular-6e" transform="translate(351.499908 0)"/>
     <use xlink:href="#AppleSDGothicNeo-Regular-74" transform="translate(405.099899 0)"/>
     <use xlink:href="#AppleSDGothicNeo-Regular-72" transform="translate(440.099884 0)"/>
     <use xlink:href="#AppleSDGothicNeo-Regular-6f" transform="translate(474.699875 0)"/>
     <use xlink:href="#AppleSDGothicNeo-Regular-70" transform="translate(528.099869 0)"/>
     <use xlink:href="#AppleSDGothicNeo-Regular-79" transform="translate(582.599854 0)"/>
     <use xlink:href="#AppleSDGothicNeo-Regular-20" transform="translate(630.79985 0)"/>
     <use xlink:href="#AppleSDGothicNeo-Regular-62" transform="translate(657.099838 0)"/>
     <use xlink:href="#AppleSDGothicNeo-Regular-79" transform="translate(711.599823 0)"/>
     <use xlink:href="#AppleSDGothicNeo-Regular-20" transform="translate(759.79982 0)"/>
     <use xlink:href="#AppleSDGothicNeo-Regular-41" transform="translate(786.099808 0)"/>
     <use xlink:href="#AppleSDGothicNeo-Regular-67" transform="translate(846.599792 0)"/>
     <use xlink:href="#AppleSDGothicNeo-Regular-65" transform="translate(897.199783 0)"/>
     <use xlink:href="#AppleSDGothicNeo-Regular-6e" transform="translate(947.199768 0)"/>
     <use xlink:href="#AppleSDGothicNeo-Regular-74" transform="translate(1000.799759 0)"/>
    </g>
   </g>
  </g>
 </g>
 <defs>
  <clipPath id="p6d3cba4a1d">
   <rect x="48.15" y="22.295625" width="225.355" height="222.76"/>
  </clipPath>
 </defs>
</svg>
