<?xml version="1.0" encoding="utf-8" standalone="no"?>
<!DOCTYPE svg PUBLIC "-//W3C//DTD SVG 1.1//EN"
  "http://www.w3.org/Graphics/SVG/1.1/DTD/svg11.dtd">
<svg xmlns:xlink="http://www.w3.org/1999/xlink" width="482.305pt" height="280.565312pt" viewBox="0 0 482.305 280.565312" xmlns="http://www.w3.org/2000/svg" version="1.1">
 <metadata>
  <rdf:RDF xmlns:dc="http://purl.org/dc/elements/1.1/" xmlns:cc="http://creativecommons.org/ns#" xmlns:rdf="http://www.w3.org/1999/02/22-rdf-syntax-ns#">
   <cc:Work>
    <dc:type rdf:resource="http://purl.org/dc/dcmitype/StillImage"/>
    <dc:date>2026-05-02T15:07:12.670260</dc:date>
    <dc:format>image/svg+xml</dc:format>
    <dc:creator>
     <cc:Agent>
      <dc:title>Matplotlib v3.10.6, https://matplotlib.org/</dc:title>
     </cc:Agent>
    </dc:creator>
   </cc:Work>
  </rdf:RDF>
 </metadata>
 <defs>
  <style type="text/css">*{stroke-linejoin: round; stroke-linecap: butt}</style>
 </defs>
 <g id="figure_1">
  <g id="patch_1">
   <path d="M 0 280.565312 
L 482.305 280.565312 
L 482.305 0 
L 0 0 
z
" style="fill: #ffffff"/>
  </g>
  <g id="axes_1">
   <g id="patch_2">
    <path d="M 41.85 244.935625 
L 475.105 244.935625 
L 475.105 22.295625 
L 41.85 22.295625 
z
" style="fill: #ffffff"/>
   </g>
   <g id="matplotlib.axis_1">
    <g id="xtick_1">
     <g id="line2d_1">
      <path d="M 96.006875 244.935625 
L 96.006875 22.295625 
" clip-path="url(#p2e15efdcf9)" style="fill: none; stroke-dasharray: 0.8,1.32; stroke-dashoffset: 0; stroke: #b0b0b0; stroke-opacity: 0.4; stroke-width: 0.8"/>
     </g>
     <g id="line2d_2">
      <defs>
       <path id="m607ace6e81" d="M 0 0 
L 0 3.5 
" style="stroke: #000000; stroke-width: 0.8"/>
      </defs>
      <g>
       <use xlink:href="#m607ace6e81" x="96.006875" y="244.935625" style="stroke: #000000; stroke-width: 0.8"/>
      </g>
     </g>
     <g id="text_1">
      <!-- blue_agent -->
      <g transform="translate(73.4975 259.515312) scale(0.1 -0.1)">
       <defs>
        <path id="AppleSDGothicNeo-Regular-62" d="M 1626 198 
C 2650 198 3206 800 3206 1862 
L 3206 1946 
C 3206 3136 2579 3501 1971 3501 
C 1536 3501 1235 3379 992 3232 
L 960 3232 
L 960 4851 
L 467 4851 
L 467 371 
C 749 262 1254 198 1626 198 
z
M 1651 608 
C 1331 608 1107 659 960 723 
L 960 2880 
C 1126 2957 1421 3085 1747 3085 
C 2387 3085 2694 2797 2694 1914 
L 2694 1786 
C 2694 877 2221 608 1651 608 
z
" transform="scale(0.015625)"/>
        <path id="AppleSDGothicNeo-Regular-6c" d="M 480 269 
L 973 269 
L 973 4851 
L 480 4851 
L 480 269 
z
" transform="scale(0.015625)"/>
        <path id="AppleSDGothicNeo-Regular-75" d="M 1421 211 
C 1805 211 2144 358 2432 557 
L 2458 557 
L 2502 269 
L 2925 269 
L 2925 3443 
L 2438 3443 
L 2438 883 
C 2176 755 1894 634 1555 634 
C 1088 634 941 800 941 1210 
L 941 3443 
L 448 3443 
L 448 1139 
C 448 525 800 211 1421 211 
z
" transform="scale(0.015625)"/>
        <path id="AppleSDGothicNeo-Regular-65" d="M 1773 211 
C 2285 211 2650 371 2842 506 
L 2842 870 
C 2554 736 2272 634 1850 634 
C 1171 634 794 941 768 1734 
L 2931 1734 
L 2931 2010 
C 2931 2995 2522 3501 1651 3501 
C 922 3501 269 3008 269 1901 
L 269 1811 
C 269 819 774 211 1773 211 
z
M 1638 3104 
C 2157 3104 2419 2816 2419 2125 
L 768 2125 
C 819 2874 1242 3104 1638 3104 
z
" transform="scale(0.015625)"/>
        <path id="AppleSDGothicNeo-Regular-5f" d="M 51 -365 
L 2099 -365 
L 2099 -38 
L 51 -38 
L 51 -365 
z
" transform="scale(0.015625)"/>
        <path id="AppleSDGothicNeo-Regular-61" d="M 1242 211 
C 1670 211 1939 365 2086 544 
L 2118 544 
L 2170 269 
L 2566 269 
L 2566 2566 
C 2566 3213 2176 3501 1478 3501 
C 1114 3501 806 3443 531 3328 
L 531 2976 
C 730 3034 979 3078 1286 3078 
C 1856 3078 2074 2950 2074 2458 
L 2074 2125 
L 1216 2022 
C 608 1952 250 1658 250 1101 
C 250 506 666 211 1242 211 
z
M 1363 595 
C 998 595 762 768 762 1114 
C 762 1478 954 1638 1344 1677 
L 2074 1760 
L 2074 826 
C 1939 691 1658 595 1363 595 
z
" transform="scale(0.015625)"/>
        <path id="AppleSDGothicNeo-Regular-67" d="M 1574 -672 
C 2656 -672 3091 -243 3091 301 
C 3091 890 2662 1062 2086 1062 
L 1210 1062 
C 998 1062 896 1126 896 1299 
C 896 1402 960 1478 1043 1555 
C 1210 1498 1389 1466 1587 1466 
C 2253 1466 2778 1805 2778 2483 
L 2778 2490 
C 2778 2739 2694 2931 2547 3072 
L 3117 3072 
L 3117 3450 
L 2042 3450 
C 1901 3482 1754 3501 1594 3501 
C 896 3501 397 3136 397 2477 
L 397 2464 
C 397 2086 550 1830 794 1670 
C 550 1491 435 1344 435 1146 
C 435 934 576 800 755 749 
L 755 717 
C 429 608 154 410 154 70 
C 154 -390 608 -672 1574 -672 
z
M 1562 -288 
C 934 -288 666 -147 666 134 
C 666 403 851 544 1094 627 
L 2010 627 
C 2426 627 2579 531 2579 237 
C 2579 -96 2310 -288 1562 -288 
z
M 1587 1850 
C 1165 1850 883 2054 883 2470 
L 883 2502 
C 883 2899 1152 3130 1587 3130 
C 2016 3130 2285 2931 2285 2496 
L 2285 2464 
C 2285 2054 2029 1850 1587 1850 
z
" transform="scale(0.015625)"/>
        <path id="AppleSDGothicNeo-Regular-6e" d="M 467 269 
L 954 269 
L 954 2848 
C 1216 2970 1549 3078 1850 3078 
C 2355 3078 2490 2918 2490 2534 
L 2490 269 
L 2976 269 
L 2976 2637 
C 2976 3251 2675 3501 2054 3501 
C 1664 3501 1254 3360 960 3168 
L 934 3168 
L 934 3443 
L 467 3443 
L 467 269 
z
" transform="scale(0.015625)"/>
        <path id="AppleSDGothicNeo-Regular-74" d="M 1472 230 
C 1747 230 1882 301 2010 358 
L 2010 691 
C 1882 653 1734 634 1600 634 
C 1235 634 1133 755 1133 1062 
L 1133 3034 
L 1946 3034 
L 1946 3437 
L 1133 3437 
L 1133 4192 
L 646 4192 
L 646 3437 
L 192 3437 
L 192 3034 
L 646 3034 
L 646 986 
C 646 448 973 230 1472 230 
z
" transform="scale(0.015625)"/>
       </defs>
       <use xlink:href="#AppleSDGothicNeo-Regular-62"/>
       <use xlink:href="#AppleSDGothicNeo-Regular-6c" transform="translate(54.499985 0)"/>
       <use xlink:href="#AppleSDGothicNeo-Regular-75" transform="translate(77.199982 0)"/>
       <use xlink:href="#AppleSDGothicNeo-Regular-65" transform="translate(130.199966 0)"/>
       <use xlink:href="#AppleSDGothicNeo-Regular-5f" transform="translate(180.199951 0)"/>
       <use xlink:href="#AppleSDGothicNeo-Regular-61" transform="translate(213.799942 0)"/>
       <use xlink:href="#AppleSDGothicNeo-Regular-67" transform="translate(260.999939 0)"/>
       <use xlink:href="#AppleSDGothicNeo-Regular-65" transform="translate(311.59993 0)"/>
       <use xlink:href="#AppleSDGothicNeo-Regular-6e" transform="translate(361.599915 0)"/>
       <use xlink:href="#AppleSDGothicNeo-Regular-74" transform="translate(415.199905 0)"/>
      </g>
     </g>
    </g>
    <g id="xtick_2">
     <g id="line2d_3">
      <path d="M 204.320625 244.935625 
L 204.320625 22.295625 
" clip-path="url(#p2e15efdcf9)" style="fill: none; stroke-dasharray: 0.8,1.32; stroke-dashoffset: 0; stroke: #b0b0b0; stroke-opacity: 0.4; stroke-width: 0.8"/>
     </g>
     <g id="line2d_4">
      <g>
       <use xlink:href="#m607ace6e81" x="204.320625" y="244.935625" style="stroke: #000000; stroke-width: 0.8"/>
      </g>
     </g>
     <g id="text_2">
      <!-- local_llm:mlx-community/Qwen2.5-7B-Instruct-4bit -->
      <g transform="translate(95.465156 259.655937) scale(0.1 -0.1)">
       <defs>
        <path id="AppleSDGothicNeo-Regular-6f" d="M 1702 211 
C 2560 211 3149 813 3149 1824 
L 3149 1914 
C 3149 2918 2605 3501 1709 3501 
C 851 3501 269 2899 269 1894 
L 269 1798 
C 269 787 806 211 1702 211 
z
M 1715 614 
C 1184 614 768 902 768 1786 
L 768 1946 
C 768 2688 1126 3098 1702 3098 
C 2221 3098 2650 2810 2650 1926 
L 2650 1766 
C 2650 1018 2291 614 1715 614 
z
" transform="scale(0.015625)"/>
        <path id="AppleSDGothicNeo-Regular-63" d="M 1734 211 
C 2176 211 2458 339 2662 461 
L 2662 858 
C 2502 768 2221 634 1792 634 
C 1114 634 774 998 774 1811 
L 774 1965 
C 774 2694 1152 3085 1728 3085 
C 2144 3085 2349 3008 2630 2880 
L 2630 3290 
C 2419 3424 2170 3501 1754 3501 
C 934 3501 269 3014 269 1888 
L 269 1792 
C 269 749 826 211 1734 211 
z
" transform="scale(0.015625)"/>
        <path id="AppleSDGothicNeo-Regular-6d" d="M 467 269 
L 954 269 
L 954 2848 
C 1210 2970 1491 3078 1760 3078 
C 2182 3078 2336 2918 2336 2534 
L 2336 269 
L 2822 269 
L 2822 2637 
C 2822 2714 2816 2771 2803 2848 
C 3104 2982 3373 3078 3622 3078 
C 4051 3078 4205 2918 4205 2534 
L 4205 269 
L 4685 269 
L 4685 2637 
C 4685 3251 4365 3501 3814 3501 
C 3456 3501 3085 3373 2739 3149 
L 2714 3149 
C 2566 3386 2310 3501 1952 3501 
C 1594 3501 1254 3354 960 3168 
L 934 3168 
L 934 3443 
L 467 3443 
L 467 269 
z
" transform="scale(0.015625)"/>
        <path id="AppleSDGothicNeo-Regular-3a" d="M 640 3014 
L 1190 3014 
L 1190 3590 
L 640 3590 
L 640 3014 
z
M 640 659 
L 1190 659 
L 1190 1242 
L 640 1242 
L 640 659 
z
" transform="scale(0.015625)"/>
        <path id="AppleSDGothicNeo-Regular-78" d="M 147 269 
L 685 269 
L 1510 1536 
L 2317 269 
L 2899 269 
L 1837 1882 
L 2822 3443 
L 2291 3443 
L 1568 2234 
L 774 3443 
L 198 3443 
L 1229 1882 
L 147 269 
z
" transform="scale(0.015625)"/>
        <path id="AppleSDGothicNeo-Regular-2d" d="M 333 2138 
L 2445 2138 
L 2445 2560 
L 333 2560 
L 333 2138 
z
" transform="scale(0.015625)"/>
        <path id="AppleSDGothicNeo-Regular-69" d="M 486 269 
L 973 269 
L 973 3437 
L 486 3437 
L 486 269 
z
M 480 4077 
L 979 4077 
L 979 4589 
L 480 4589 
L 480 4077 
z
" transform="scale(0.015625)"/>
        <path id="AppleSDGothicNeo-Regular-79" d="M 710 -685 
C 1235 -685 1498 -493 1709 70 
L 2957 3443 
L 2464 3443 
L 1606 1030 
L 1594 1030 
L 659 3443 
L 134 3443 
L 1350 384 
L 1254 122 
C 1120 -224 928 -275 621 -275 
C 506 -275 390 -243 314 -230 
L 314 -595 
C 403 -640 563 -685 710 -685 
z
" transform="scale(0.015625)"/>
        <path id="AppleSDGothicNeo-Regular-2f" d="M 58 -384 
L 499 -384 
L 2003 4941 
L 1562 4941 
L 58 -384 
z
" transform="scale(0.015625)"/>
        <path id="AppleSDGothicNeo-Regular-51" d="M 4077 2362 
L 4077 2470 
C 4077 3872 3360 4634 2208 4634 
C 1024 4634 314 3821 314 2477 
L 314 2368 
C 314 1165 806 493 1683 237 
L 4109 -461 
L 4230 -13 
L 2739 346 
C 3597 557 4077 1242 4077 2362 
z
M 2208 608 
C 1242 608 851 1331 851 2368 
L 851 2566 
C 851 3533 1293 4218 2182 4218 
C 3149 4211 3533 3514 3533 2470 
L 3533 2272 
C 3533 1312 3091 608 2208 608 
z
" transform="scale(0.015625)"/>
        <path id="AppleSDGothicNeo-Regular-77" d="M 1082 269 
L 1581 269 
L 2330 2688 
L 2349 2688 
L 3085 269 
L 3578 269 
L 4480 3443 
L 4013 3443 
L 3360 902 
L 3334 902 
L 2566 3443 
L 2144 3443 
L 1382 902 
L 1357 902 
L 704 3443 
L 179 3443 
L 1082 269 
z
" transform="scale(0.015625)"/>
        <path id="AppleSDGothicNeo-Regular-32" d="M 397 269 
L 3066 269 
L 3066 704 
L 1107 704 
L 1779 1382 
C 2522 2138 2970 2650 2970 3392 
C 2970 4160 2502 4640 1638 4640 
C 1152 4640 717 4422 448 4250 
L 595 3846 
C 845 4019 1190 4198 1555 4198 
C 2163 4198 2438 3917 2438 3347 
C 2438 2733 2029 2266 1421 1632 
L 397 570 
L 397 269 
z
" transform="scale(0.015625)"/>
        <path id="AppleSDGothicNeo-Regular-2e" d="M 269 109 
L 826 109 
L 826 678 
L 269 678 
L 269 109 
z
" transform="scale(0.015625)"/>
        <path id="AppleSDGothicNeo-Regular-35" d="M 1395 192 
C 2342 192 2906 838 2906 1606 
C 2906 2509 2374 2918 1510 2918 
C 1331 2918 1069 2874 896 2829 
L 986 4134 
L 2752 4134 
L 2752 4570 
L 576 4570 
L 422 2317 
C 621 2406 1024 2528 1318 2528 
C 1990 2528 2374 2266 2374 1613 
C 2374 1005 1978 621 1299 621 
C 947 621 525 768 288 928 
L 192 518 
C 448 333 896 192 1395 192 
z
" transform="scale(0.015625)"/>
        <path id="AppleSDGothicNeo-Regular-37" d="M 710 243 
L 1274 243 
L 2957 4218 
L 2957 4544 
L 218 4544 
L 218 4115 
L 2400 4115 
L 710 243 
z
" transform="scale(0.015625)"/>
        <path id="AppleSDGothicNeo-Regular-42" d="M 550 269 
L 1990 269 
C 2957 269 3443 768 3443 1478 
C 3443 2131 3059 2432 2534 2515 
L 2534 2547 
C 3040 2694 3251 3034 3251 3482 
C 3251 4166 2854 4563 1862 4563 
L 550 4563 
L 550 269 
z
M 1056 691 
L 1056 2285 
L 1907 2285 
C 2547 2285 2906 2067 2906 1510 
C 2906 960 2579 691 1958 691 
L 1056 691 
z
M 1056 2688 
L 1056 4134 
L 1824 4134 
C 2426 4134 2733 3962 2733 3424 
C 2733 2867 2330 2688 1792 2688 
L 1056 2688 
z
" transform="scale(0.015625)"/>
        <path id="AppleSDGothicNeo-Regular-49" d="M 576 269 
L 1082 269 
L 1082 4563 
L 576 4563 
L 576 269 
z
" transform="scale(0.015625)"/>
        <path id="AppleSDGothicNeo-Regular-73" d="M 1274 218 
C 1971 218 2394 550 2394 1152 
C 2394 1702 2144 1907 1536 2067 
L 1216 2157 
C 877 2253 742 2368 742 2643 
C 742 2938 954 3085 1382 3085 
C 1734 3085 2054 3002 2221 2918 
L 2221 3315 
C 2054 3405 1779 3501 1357 3501 
C 627 3501 275 3136 275 2598 
C 275 2061 589 1850 1050 1722 
L 1363 1638 
C 1766 1523 1914 1395 1914 1101 
C 1914 813 1709 634 1203 634 
C 755 634 525 730 250 832 
L 250 442 
C 512 294 858 218 1274 218 
z
" transform="scale(0.015625)"/>
        <path id="AppleSDGothicNeo-Regular-72" d="M 467 269 
L 960 269 
L 960 2765 
C 1184 2925 1491 3040 1811 3040 
C 1862 3040 1958 3034 2042 3021 
L 2042 3462 
C 2010 3469 1920 3475 1850 3475 
C 1491 3475 1146 3290 966 3085 
L 934 3085 
L 934 3443 
L 467 3443 
L 467 269 
z
" transform="scale(0.015625)"/>
        <path id="AppleSDGothicNeo-Regular-34" d="M 2214 166 
L 2682 166 
L 2682 1171 
L 3398 1171 
L 3398 1587 
L 2682 1587 
L 2682 4621 
L 2285 4621 
L 186 1555 
L 186 1171 
L 2214 1171 
L 2214 166 
z
M 730 1587 
L 2214 3814 
L 2214 1587 
L 730 1587 
z
" transform="scale(0.015625)"/>
       </defs>
       <use xlink:href="#AppleSDGothicNeo-Regular-6c"/>
       <use xlink:href="#AppleSDGothicNeo-Regular-6f" transform="translate(22.699997 0)"/>
       <use xlink:href="#AppleSDGothicNeo-Regular-63" transform="translate(76.099991 0)"/>
       <use xlink:href="#AppleSDGothicNeo-Regular-61" transform="translate(121.099976 0)"/>
       <use xlink:href="#AppleSDGothicNeo-Regular-6c" transform="translate(168.299973 0)"/>
       <use xlink:href="#AppleSDGothicNeo-Regular-5f" transform="translate(190.999969 0)"/>
       <use xlink:href="#AppleSDGothicNeo-Regular-6c" transform="translate(224.59996 0)"/>
       <use xlink:href="#AppleSDGothicNeo-Regular-6c" transform="translate(247.299957 0)"/>
       <use xlink:href="#AppleSDGothicNeo-Regular-6d" transform="translate(269.999954 0)"/>
       <use xlink:href="#AppleSDGothicNeo-Regular-3a" transform="translate(350.299942 0)"/>
       <use xlink:href="#AppleSDGothicNeo-Regular-6d" transform="translate(378.699936 0)"/>
       <use xlink:href="#AppleSDGothicNeo-Regular-6c" transform="translate(458.999924 0)"/>
       <use xlink:href="#AppleSDGothicNeo-Regular-78" transform="translate(481.699921 0)"/>
       <use xlink:href="#AppleSDGothicNeo-Regular-2d" transform="translate(529.399918 0)"/>
       <use xlink:href="#AppleSDGothicNeo-Regular-63" transform="translate(572.599915 0)"/>
       <use xlink:href="#AppleSDGothicNeo-Regular-6f" transform="translate(617.599899 0)"/>
       <use xlink:href="#AppleSDGothicNeo-Regular-6d" transform="translate(670.999893 0)"/>
       <use xlink:href="#AppleSDGothicNeo-Regular-6d" transform="translate(751.299881 0)"/>
       <use xlink:href="#AppleSDGothicNeo-Regular-75" transform="translate(831.599869 0)"/>
       <use xlink:href="#AppleSDGothicNeo-Regular-6e" transform="translate(884.599854 0)"/>
       <use xlink:href="#AppleSDGothicNeo-Regular-69" transform="translate(938.199844 0)"/>
       <use xlink:href="#AppleSDGothicNeo-Regular-74" transform="translate(960.899841 0)"/>
       <use xlink:href="#AppleSDGothicNeo-Regular-79" transform="translate(995.899826 0)"/>
       <use xlink:href="#AppleSDGothicNeo-Regular-2f" transform="translate(1044.099823 0)"/>
       <use xlink:href="#AppleSDGothicNeo-Regular-51" transform="translate(1077.899811 0)"/>
       <use xlink:href="#AppleSDGothicNeo-Regular-77" transform="translate(1146.399796 0)"/>
       <use xlink:href="#AppleSDGothicNeo-Regular-65" transform="translate(1219.199783 0)"/>
       <use xlink:href="#AppleSDGothicNeo-Regular-6e" transform="translate(1269.199768 0)"/>
       <use xlink:href="#AppleSDGothicNeo-Regular-32" transform="translate(1322.799759 0)"/>
       <use xlink:href="#AppleSDGothicNeo-Regular-2e" transform="translate(1376.099747 0)"/>
       <use xlink:href="#AppleSDGothicNeo-Regular-35" transform="translate(1398.699738 0)"/>
       <use xlink:href="#AppleSDGothicNeo-Regular-2d" transform="translate(1448.599731 0)"/>
       <use xlink:href="#AppleSDGothicNeo-Regular-37" transform="translate(1491.799728 0)"/>
       <use xlink:href="#AppleSDGothicNeo-Regular-42" transform="translate(1540.799713 0)"/>
       <use xlink:href="#AppleSDGothicNeo-Regular-2d" transform="translate(1599.399704 0)"/>
       <use xlink:href="#AppleSDGothicNeo-Regular-49" transform="translate(1642.599701 0)"/>
       <use xlink:href="#AppleSDGothicNeo-Regular-6e" transform="translate(1668.499695 0)"/>
       <use xlink:href="#AppleSDGothicNeo-Regular-73" transform="translate(1722.099686 0)"/>
       <use xlink:href="#AppleSDGothicNeo-Regular-74" transform="translate(1763.59967 0)"/>
       <use xlink:href="#AppleSDGothicNeo-Regular-72" transform="translate(1798.599655 0)"/>
       <use xlink:href="#AppleSDGothicNeo-Regular-75" transform="translate(1833.199646 0)"/>
       <use xlink:href="#AppleSDGothicNeo-Regular-63" transform="translate(1886.199631 0)"/>
       <use xlink:href="#AppleSDGothicNeo-Regular-74" transform="translate(1931.199615 0)"/>
       <use xlink:href="#AppleSDGothicNeo-Regular-2d" transform="translate(1966.1996 0)"/>
       <use xlink:href="#AppleSDGothicNeo-Regular-34" transform="translate(2009.399597 0)"/>
       <use xlink:href="#AppleSDGothicNeo-Regular-62" transform="translate(2064.899582 0)"/>
       <use xlink:href="#AppleSDGothicNeo-Regular-69" transform="translate(2119.399567 0)"/>
       <use xlink:href="#AppleSDGothicNeo-Regular-74" transform="translate(2142.099564 0)"/>
      </g>
     </g>
    </g>
    <g id="xtick_3">
     <g id="line2d_5">
      <path d="M 312.634375 244.935625 
L 312.634375 22.295625 
" clip-path="url(#p2e15efdcf9)" style="fill: none; stroke-dasharray: 0.8,1.32; stroke-dashoffset: 0; stroke: #b0b0b0; stroke-opacity: 0.4; stroke-width: 0.8"/>
     </g>
     <g id="line2d_6">
      <g>
       <use xlink:href="#m607ace6e81" x="312.634375" y="244.935625" style="stroke: #000000; stroke-width: 0.8"/>
      </g>
     </g>
     <g id="text_3">
      <!-- red_rule -->
      <g transform="translate(295.985156 259.515312) scale(0.1 -0.1)">
       <defs>
        <path id="AppleSDGothicNeo-Regular-64" d="M 1600 211 
C 2029 211 2336 346 2528 531 
L 2554 531 
L 2611 269 
L 3021 269 
L 3021 4851 
L 2528 4851 
L 2528 3290 
C 2355 3392 2086 3501 1696 3501 
C 877 3501 282 3002 282 1850 
L 282 1766 
C 282 595 966 211 1600 211 
z
M 1747 614 
C 1178 614 794 896 794 1786 
L 794 1914 
C 794 2771 1158 3085 1760 3085 
C 2086 3085 2381 2995 2528 2880 
L 2528 883 
C 2368 755 2118 614 1747 614 
z
" transform="scale(0.015625)"/>
       </defs>
       <use xlink:href="#AppleSDGothicNeo-Regular-72"/>
       <use xlink:href="#AppleSDGothicNeo-Regular-65" transform="translate(34.599991 0)"/>
       <use xlink:href="#AppleSDGothicNeo-Regular-64" transform="translate(84.599976 0)"/>
       <use xlink:href="#AppleSDGothicNeo-Regular-5f" transform="translate(139.09996 0)"/>
       <use xlink:href="#AppleSDGothicNeo-Regular-72" transform="translate(172.699951 0)"/>
       <use xlink:href="#AppleSDGothicNeo-Regular-75" transform="translate(207.299942 0)"/>
       <use xlink:href="#AppleSDGothicNeo-Regular-6c" transform="translate(260.299927 0)"/>
       <use xlink:href="#AppleSDGothicNeo-Regular-65" transform="translate(282.999924 0)"/>
      </g>
     </g>
    </g>
    <g id="xtick_4">
     <g id="line2d_7">
      <path d="M 420.948125 244.935625 
L 420.948125 22.295625 
" clip-path="url(#p2e15efdcf9)" style="fill: none; stroke-dasharray: 0.8,1.32; stroke-dashoffset: 0; stroke: #b0b0b0; stroke-opacity: 0.4; stroke-width: 0.8"/>
     </g>
     <g id="line2d_8">
      <g>
       <use xlink:href="#m607ace6e81" x="420.948125" y="244.935625" style="stroke: #000000; stroke-width: 0.8"/>
      </g>
     </g>
     <g id="text_4">
      <!-- rule -->
      <g transform="translate(412.933281 259.515312) scale(0.1 -0.1)">
       <use xlink:href="#AppleSDGothicNeo-Regular-72"/>
       <use xlink:href="#AppleSDGothicNeo-Regular-75" transform="translate(34.599991 0)"/>
       <use xlink:href="#AppleSDGothicNeo-Regular-6c" transform="translate(87.599976 0)"/>
       <use xlink:href="#AppleSDGothicNeo-Regular-65" transform="translate(110.299973 0)"/>
      </g>
     </g>
    </g>
    <g id="text_5">
     <!-- Agent -->
     <g transform="translate(245.993125 272.305937) scale(0.1 -0.1)">
      <defs>
       <path id="AppleSDGothicNeo-Regular-41" d="M 122 269 
L 608 269 
L 1050 1523 
L 2771 1523 
L 3226 269 
L 3757 269 
L 2189 4563 
L 1696 4563 
L 122 269 
z
M 1901 3885 
L 1914 3885 
L 2611 1952 
L 1197 1952 
L 1901 3885 
z
" transform="scale(0.015625)"/>
      </defs>
      <use xlink:href="#AppleSDGothicNeo-Regular-41"/>
      <use xlink:href="#AppleSDGothicNeo-Regular-67" transform="translate(60.499985 0)"/>
      <use xlink:href="#AppleSDGothicNeo-Regular-65" transform="translate(111.099976 0)"/>
      <use xlink:href="#AppleSDGothicNeo-Regular-6e" transform="translate(161.09996 0)"/>
      <use xlink:href="#AppleSDGothicNeo-Regular-74" transform="translate(214.699951 0)"/>
     </g>
    </g>
   </g>
   <g id="matplotlib.axis_2">
    <g id="ytick_1">
     <g id="line2d_9">
      <path d="M 41.85 234.815625 
L 475.105 234.815625 
" clip-path="url(#p2e15efdcf9)" style="fill: none; stroke-dasharray: 0.8,1.32; stroke-dashoffset: 0; stroke: #b0b0b0; stroke-opacity: 0.4; stroke-width: 0.8"/>
     </g>
     <g id="line2d_10">
      <defs>
       <path id="mc5a55c3962" d="M 0 0 
L -3.5 0 
" style="stroke: #000000; stroke-width: 0.8"/>
      </defs>
      <g>
       <use xlink:href="#mc5a55c3962" x="41.85" y="234.815625" style="stroke: #000000; stroke-width: 0.8"/>
      </g>
     </g>
     <g id="text_6">
      <!-- 0.0 -->
      <g transform="translate(19.990625 238.605469) scale(0.1 -0.1)">
       <defs>
        <path id="AppleSDGothicNeo-Regular-30" d="M 2022 192 
C 2893 192 3558 787 3558 2240 
L 3558 2630 
C 3558 4122 2867 4634 2029 4634 
C 1184 4634 448 4122 448 2605 
L 448 2246 
C 448 794 1139 192 2022 192 
z
M 2022 614 
C 1350 614 992 1126 992 2195 
L 992 2669 
C 992 3744 1357 4211 2029 4211 
C 2688 4211 3040 3718 3040 2637 
L 3040 2163 
C 3040 1062 2682 614 2022 614 
z
" transform="scale(0.015625)"/>
       </defs>
       <use xlink:href="#AppleSDGothicNeo-Regular-30"/>
       <use xlink:href="#AppleSDGothicNeo-Regular-2e" transform="translate(62.999985 0)"/>
       <use xlink:href="#AppleSDGothicNeo-Regular-30" transform="translate(85.599976 0)"/>
      </g>
     </g>
    </g>
    <g id="ytick_2">
     <g id="line2d_11">
      <path d="M 41.85 189.703655 
L 475.105 189.703655 
" clip-path="url(#p2e15efdcf9)" style="fill: none; stroke-dasharray: 0.8,1.32; stroke-dashoffset: 0; stroke: #b0b0b0; stroke-opacity: 0.4; stroke-width: 0.8"/>
     </g>
     <g id="line2d_12">
      <g>
       <use xlink:href="#mc5a55c3962" x="41.85" y="189.703655" style="stroke: #000000; stroke-width: 0.8"/>
      </g>
     </g>
     <g id="text_7">
      <!-- 0.5 -->
      <g transform="translate(21.3 193.493499) scale(0.1 -0.1)">
       <use xlink:href="#AppleSDGothicNeo-Regular-30"/>
       <use xlink:href="#AppleSDGothicNeo-Regular-2e" transform="translate(62.999985 0)"/>
       <use xlink:href="#AppleSDGothicNeo-Regular-35" transform="translate(85.599976 0)"/>
      </g>
     </g>
    </g>
    <g id="ytick_3">
     <g id="line2d_13">
      <path d="M 41.85 144.591685 
L 475.105 144.591685 
" clip-path="url(#p2e15efdcf9)" style="fill: none; stroke-dasharray: 0.8,1.32; stroke-dashoffset: 0; stroke: #b0b0b0; stroke-opacity: 0.4; stroke-width: 0.8"/>
     </g>
     <g id="line2d_14">
      <g>
       <use xlink:href="#mc5a55c3962" x="41.85" y="144.591685" style="stroke: #000000; stroke-width: 0.8"/>
      </g>
     </g>
     <g id="text_8">
      <!-- 1.0 -->
      <g transform="translate(22.720312 148.381529) scale(0.1 -0.1)">
       <defs>
        <path id="AppleSDGothicNeo-Regular-31" d="M 1146 243 
L 1632 243 
L 1632 4634 
L 1363 4634 
L 352 4160 
L 352 3866 
L 1146 4051 
L 1146 243 
z
" transform="scale(0.015625)"/>
       </defs>
       <use xlink:href="#AppleSDGothicNeo-Regular-31"/>
       <use xlink:href="#AppleSDGothicNeo-Regular-2e" transform="translate(35.699997 0)"/>
       <use xlink:href="#AppleSDGothicNeo-Regular-30" transform="translate(58.299988 0)"/>
      </g>
     </g>
    </g>
    <g id="ytick_4">
     <g id="line2d_15">
      <path d="M 41.85 99.479715 
L 475.105 99.479715 
" clip-path="url(#p2e15efdcf9)" style="fill: none; stroke-dasharray: 0.8,1.32; stroke-dashoffset: 0; stroke: #b0b0b0; stroke-opacity: 0.4; stroke-width: 0.8"/>
     </g>
     <g id="line2d_16">
      <g>
       <use xlink:href="#mc5a55c3962" x="41.85" y="99.479715" style="stroke: #000000; stroke-width: 0.8"/>
      </g>
     </g>
     <g id="text_9">
      <!-- 1.5 -->
      <g transform="translate(24.029688 103.269559) scale(0.1 -0.1)">
       <use xlink:href="#AppleSDGothicNeo-Regular-31"/>
       <use xlink:href="#AppleSDGothicNeo-Regular-2e" transform="translate(35.699997 0)"/>
       <use xlink:href="#AppleSDGothicNeo-Regular-35" transform="translate(58.299988 0)"/>
      </g>
     </g>
    </g>
    <g id="ytick_5">
     <g id="line2d_17">
      <path d="M 41.85 54.367745 
L 475.105 54.367745 
" clip-path="url(#p2e15efdcf9)" style="fill: none; stroke-dasharray: 0.8,1.32; stroke-dashoffset: 0; stroke: #b0b0b0; stroke-opacity: 0.4; stroke-width: 0.8"/>
     </g>
     <g id="line2d_18">
      <g>
       <use xlink:href="#mc5a55c3962" x="41.85" y="54.367745" style="stroke: #000000; stroke-width: 0.8"/>
      </g>
     </g>
     <g id="text_10">
      <!-- 2.0 -->
      <g transform="translate(20.960938 58.157589) scale(0.1 -0.1)">
       <use xlink:href="#AppleSDGothicNeo-Regular-32"/>
       <use xlink:href="#AppleSDGothicNeo-Regular-2e" transform="translate(53.299988 0)"/>
       <use xlink:href="#AppleSDGothicNeo-Regular-30" transform="translate(75.899979 0)"/>
      </g>
     </g>
    </g>
    <g id="text_11">
     <!-- Action Entropy (bits) -->
     <g transform="translate(14.920312 177.325781) rotate(-90) scale(0.1 -0.1)">
      <defs>
       <path id="AppleSDGothicNeo-Regular-20" transform="scale(0.015625)"/>
       <path id="AppleSDGothicNeo-Regular-45" d="M 557 269 
L 3123 269 
L 3123 698 
L 1062 698 
L 1062 2266 
L 2637 2266 
L 2637 2694 
L 1062 2694 
L 1062 4134 
L 3104 4134 
L 3104 4563 
L 557 4563 
L 557 269 
z
" transform="scale(0.015625)"/>
       <path id="AppleSDGothicNeo-Regular-70" d="M 467 -678 
L 960 -678 
L 960 422 
C 1139 320 1408 211 1773 211 
C 2650 211 3206 698 3206 1856 
L 3206 1939 
C 3206 3117 2605 3501 1907 3501 
C 1498 3501 1165 3360 966 3181 
L 941 3181 
L 941 3437 
L 467 3437 
L 467 -678 
z
M 1728 614 
C 1395 614 1107 717 960 838 
L 960 2854 
C 1107 2957 1408 3085 1779 3085 
C 2362 3085 2694 2810 2694 1914 
L 2694 1786 
C 2694 934 2330 614 1728 614 
z
" transform="scale(0.015625)"/>
       <path id="AppleSDGothicNeo-Regular-28" d="M 1472 -384 
L 1914 -384 
C 1344 256 883 1235 883 2221 
L 883 2374 
C 883 3392 1344 4307 1914 4941 
L 1472 4941 
C 883 4339 365 3469 365 2330 
L 365 2227 
C 365 1094 883 218 1472 -384 
z
" transform="scale(0.015625)"/>
       <path id="AppleSDGothicNeo-Regular-29" d="M 115 -384 
L 550 -384 
C 1146 218 1651 1088 1651 2227 
L 1651 2330 
C 1651 3462 1146 4339 550 4941 
L 115 4941 
C 678 4301 1146 3322 1146 2336 
L 1146 2176 
C 1146 1165 678 250 115 -384 
z
" transform="scale(0.015625)"/>
      </defs>
      <use xlink:href="#AppleSDGothicNeo-Regular-41"/>
      <use xlink:href="#AppleSDGothicNeo-Regular-63" transform="translate(60.499985 0)"/>
      <use xlink:href="#AppleSDGothicNeo-Regular-74" transform="translate(105.499969 0)"/>
      <use xlink:href="#AppleSDGothicNeo-Regular-69" transform="translate(140.499954 0)"/>
      <use xlink:href="#AppleSDGothicNeo-Regular-6f" transform="translate(163.199951 0)"/>
      <use xlink:href="#AppleSDGothicNeo-Regular-6e" transform="translate(216.599945 0)"/>
      <use xlink:href="#AppleSDGothicNeo-Regular-20" transform="translate(270.199936 0)"/>
      <use xlink:href="#AppleSDGothicNeo-Regular-45" transform="translate(296.499924 0)"/>
      <use xlink:href="#AppleSDGothicNeo-Regular-6e" transform="translate(351.499908 0)"/>
      <use xlink:href="#AppleSDGothicNeo-Regular-74" transform="translate(405.099899 0)"/>
      <use xlink:href="#AppleSDGothicNeo-Regular-72" transform="translate(440.099884 0)"/>
      <use xlink:href="#AppleSDGothicNeo-Regular-6f" transform="translate(474.699875 0)"/>
      <use xlink:href="#AppleSDGothicNeo-Regular-70" transform="translate(528.099869 0)"/>
      <use xlink:href="#AppleSDGothicNeo-Regular-79" transform="translate(582.599854 0)"/>
      <use xlink:href="#AppleSDGothicNeo-Regular-20" transform="translate(630.79985 0)"/>
      <use xlink:href="#AppleSDGothicNeo-Regular-28" transform="translate(657.099838 0)"/>
      <use xlink:href="#AppleSDGothicNeo-Regular-62" transform="translate(688.799835 0)"/>
      <use xlink:href="#AppleSDGothicNeo-Regular-69" transform="translate(743.29982 0)"/>
      <use xlink:href="#AppleSDGothicNeo-Regular-74" transform="translate(765.999817 0)"/>
      <use xlink:href="#AppleSDGothicNeo-Regular-73" transform="translate(800.999802 0)"/>
      <use xlink:href="#AppleSDGothicNeo-Regular-29" transform="translate(842.499786 0)"/>
     </g>
    </g>
   </g>
   <g id="patch_3">
    <path d="M 71.636281 124.237998 
L 120.377469 124.237998 
L 120.377469 89.048657 
L 71.636281 89.048657 
L 71.636281 124.237998 
z
" clip-path="url(#p2e15efdcf9)" style="fill: #ffffff; stroke: #000000; stroke-linejoin: miter"/>
   </g>
   <g id="line2d_19">
    <path d="M 96.006875 124.237998 
L 96.006875 169.109318 
" clip-path="url(#p2e15efdcf9)" style="fill: none; stroke: #000000; stroke-linecap: square"/>
   </g>
   <g id="line2d_20">
    <path d="M 96.006875 89.048657 
L 96.006875 65.850348 
" clip-path="url(#p2e15efdcf9)" style="fill: none; stroke: #000000; stroke-linecap: square"/>
   </g>
   <g id="line2d_21">
    <path d="M 83.821578 169.109318 
L 108.192172 169.109318 
" clip-path="url(#p2e15efdcf9)" style="fill: none; stroke: #000000; stroke-linecap: square"/>
   </g>
   <g id="line2d_22">
    <path d="M 83.821578 65.850348 
L 108.192172 65.850348 
" clip-path="url(#p2e15efdcf9)" style="fill: none; stroke: #000000; stroke-linecap: square"/>
   </g>
   <g id="line2d_23">
    <defs>
     <path id="m22f885eccd" d="M 0 3 
C 0.795609 3 1.55874 2.683901 2.12132 2.12132 
C 2.683901 1.55874 3 0.795609 3 0 
C 3 -0.795609 2.683901 -1.55874 2.12132 -2.12132 
C 1.55874 -2.683901 0.795609 -3 0 -3 
C -0.795609 -3 -1.55874 -2.683901 -2.12132 -2.12132 
C -2.683901 -1.55874 -3 -0.795609 -3 0 
C -3 0.795609 -2.683901 1.55874 -2.12132 2.12132 
C -1.55874 2.683901 -0.795609 3 0 3 
z
" style="stroke: #000000"/>
    </defs>
    <g clip-path="url(#p2e15efdcf9)">
     <use xlink:href="#m22f885eccd" x="96.006875" y="234.815625" style="fill-opacity: 0; stroke: #000000"/>
     <use xlink:href="#m22f885eccd" x="96.006875" y="234.815625" style="fill-opacity: 0; stroke: #000000"/>
    </g>
   </g>
   <g id="patch_4">
    <path d="M 179.950031 100.415313 
L 228.691219 100.415313 
L 228.691219 92.16015 
L 179.950031 92.16015 
L 179.950031 100.415313 
z
" clip-path="url(#p2e15efdcf9)" style="fill: #ffffff; stroke: #000000; stroke-linejoin: miter"/>
   </g>
   <g id="line2d_24">
    <path d="M 204.320625 100.415313 
L 204.320625 104.542895 
" clip-path="url(#p2e15efdcf9)" style="fill: none; stroke: #000000; stroke-linecap: square"/>
   </g>
   <g id="line2d_25">
    <path d="M 204.320625 92.16015 
L 204.320625 88.032569 
" clip-path="url(#p2e15efdcf9)" style="fill: none; stroke: #000000; stroke-linecap: square"/>
   </g>
   <g id="line2d_26">
    <path d="M 192.135328 104.542895 
L 216.505922 104.542895 
" clip-path="url(#p2e15efdcf9)" style="fill: none; stroke: #000000; stroke-linecap: square"/>
   </g>
   <g id="line2d_27">
    <path d="M 192.135328 88.032569 
L 216.505922 88.032569 
" clip-path="url(#p2e15efdcf9)" style="fill: none; stroke: #000000; stroke-linecap: square"/>
   </g>
   <g id="line2d_28"/>
   <g id="patch_5">
    <path d="M 288.263781 88.910044 
L 337.004969 88.910044 
L 337.004969 43.810512 
L 288.263781 43.810512 
L 288.263781 88.910044 
z
" clip-path="url(#p2e15efdcf9)" style="fill: #ffffff; stroke: #000000; stroke-linejoin: miter"/>
   </g>
   <g id="line2d_29">
    <path d="M 312.634375 88.910044 
L 312.634375 112.534211 
" clip-path="url(#p2e15efdcf9)" style="fill: none; stroke: #000000; stroke-linecap: square"/>
   </g>
   <g id="line2d_30">
    <path d="M 312.634375 43.810512 
L 312.634375 32.415625 
" clip-path="url(#p2e15efdcf9)" style="fill: none; stroke: #000000; stroke-linecap: square"/>
   </g>
   <g id="line2d_31">
    <path d="M 300.449078 112.534211 
L 324.819672 112.534211 
" clip-path="url(#p2e15efdcf9)" style="fill: none; stroke: #000000; stroke-linecap: square"/>
   </g>
   <g id="line2d_32">
    <path d="M 300.449078 32.415625 
L 324.819672 32.415625 
" clip-path="url(#p2e15efdcf9)" style="fill: none; stroke: #000000; stroke-linecap: square"/>
   </g>
   <g id="line2d_33"/>
   <g id="patch_6">
    <path d="M 396.577531 95.802599 
L 445.318719 95.802599 
L 445.318719 60.880089 
L 396.577531 60.880089 
L 396.577531 95.802599 
z
" clip-path="url(#p2e15efdcf9)" style="fill: #ffffff; stroke: #000000; stroke-linejoin: miter"/>
   </g>
   <g id="line2d_34">
    <path d="M 420.948125 95.802599 
L 420.948125 113.263854 
" clip-path="url(#p2e15efdcf9)" style="fill: none; stroke: #000000; stroke-linecap: square"/>
   </g>
   <g id="line2d_35">
    <path d="M 420.948125 60.880089 
L 420.948125 43.418834 
" clip-path="url(#p2e15efdcf9)" style="fill: none; stroke: #000000; stroke-linecap: square"/>
   </g>
   <g id="line2d_36">
    <path d="M 408.762828 113.263854 
L 433.133422 113.263854 
" clip-path="url(#p2e15efdcf9)" style="fill: none; stroke: #000000; stroke-linecap: square"/>
   </g>
   <g id="line2d_37">
    <path d="M 408.762828 43.418834 
L 433.133422 43.418834 
" clip-path="url(#p2e15efdcf9)" style="fill: none; stroke: #000000; stroke-linecap: square"/>
   </g>
   <g id="line2d_38"/>
   <g id="line2d_39">
    <path d="M 71.636281 98.87346 
L 120.377469 98.87346 
" clip-path="url(#p2e15efdcf9)" style="fill: none; stroke: #000000; stroke-width: 1.5"/>
   </g>
   <g id="line2d_40">
    <path d="M 179.950031 96.287732 
L 228.691219 96.287732 
" clip-path="url(#p2e15efdcf9)" style="fill: none; stroke: #000000; stroke-width: 1.5"/>
   </g>
   <g id="line2d_41">
    <path d="M 288.263781 67.088233 
L 337.004969 67.088233 
" clip-path="url(#p2e15efdcf9)" style="fill: none; stroke: #000000; stroke-width: 1.5"/>
   </g>
   <g id="line2d_42">
    <path d="M 396.577531 78.341344 
L 445.318719 78.341344 
" clip-path="url(#p2e15efdcf9)" style="fill: none; stroke: #000000; stroke-width: 1.5"/>
   </g>
   <g id="patch_7">
    <path d="M 41.85 244.935625 
L 41.85 22.295625 
" style="fill: none; stroke: #000000; stroke-width: 0.8; stroke-linejoin: miter; stroke-linecap: square"/>
   </g>
   <g id="patch_8">
    <path d="M 41.85 244.935625 
L 475.105 244.935625 
" style="fill: none; stroke: #000000; stroke-width: 0.8; stroke-linejoin: miter; stroke-linecap: square"/>
   </g>
   <g id="text_12">
    <!-- Action Entropy by Agent -->
    <g transform="translate(196.330625 16.295625) scale(0.12 -0.12)">
     <use xlink:href="#AppleSDGothicNeo-Regular-41"/>
     <use xlink:href="#AppleSDGothicNeo-Regular-63" transform="translate(60.499985 0)"/>
     <use xlink:href="#AppleSDGothicNeo-Regular-74" transform="translate(105.499969 0)"/>
     <use xlink:href="#AppleSDGothicNeo-Regular-69" transform="translate(140.499954 0)"/>
     <use xlink:href="#AppleSDGothicNeo-Regular-6f" transform="translate(163.199951 0)"/>
     <use xlink:href="#AppleSDGothicNeo-Regular-6e" transform="translate(216.599945 0)"/>
     <use xlink:href="#AppleSDGothicNeo-Regular-20" transform="translate(270.199936 0)"/>
     <use xlink:href="#AppleSDGothicNeo-Regular-45" transform="translate(296.499924 0)"/>
     <use xlink:href="#AppleSDGothicNeo-Regular-6e" transform="translate(351.499908 0)"/>
     <use xlink:href="#AppleSDGothicNeo-Regular-74" transform="translate(405.099899 0)"/>
     <use xlink:href="#AppleSDGothicNeo-Regular-72" transform="translate(440.099884 0)"/>
     <use xlink:href="#AppleSDGothicNeo-Regular-6f" transform="translate(474.699875 0)"/>
     <use xlink:href="#AppleSDGothicNeo-Regular-70" transform="translate(528.099869 0)"/>
     <use xlink:href="#AppleSDGothicNeo-Regular-79" transform="translate(582.599854 0)"/>
     <use xlink:href="#AppleSDGothicNeo-Regular-20" transform="translate(630.79985 0)"/>
     <use xlink:href="#AppleSDGothicNeo-Regular-62" transform="translate(657.099838 0)"/>
     <use xlink:href="#AppleSDGothicNeo-Regular-79" transform="translate(711.599823 0)"/>
     <use xlink:href="#AppleSDGothicNeo-Regular-20" transform="translate(759.79982 0)"/>
     <use xlink:href="#AppleSDGothicNeo-Regular-41" transform="translate(786.099808 0)"/>
     <use xlink:href="#AppleSDGothicNeo-Regular-67" transform="translate(846.599792 0)"/>
     <use xlink:href="#AppleSDGothicNeo-Regular-65" transform="translate(897.199783 0)"/>
     <use xlink:href="#AppleSDGothicNeo-Regular-6e" transform="translate(947.199768 0)"/>
     <use xlink:href="#AppleSDGothicNeo-Regular-74" transform="translate(1000.799759 0)"/>
    </g>
   </g>
  </g>
 </g>
 <defs>
  <clipPath id="p2e15efdcf9">
   <rect x="41.85" y="22.295625" width="433.255" height="222.64"/>
  </clipPath>
 </defs>
</svg>
